Coordinates
version=1
nRows=14
nColumns=33
inDegrees=yes

Units are S.I. units (second, meters, Newtons, ...)
Angles are in degrees.

endheader
time	ground_thorax_rot_x	ground_thorax_rot_y	ground_thorax_rot_z	ground_thorax_tx	ground_thorax_ty	ground_thorax_tz	clav_prot_r	clav_elev_r	scapula_abduction_r	scapula_elevation_r	scapula_upward_rot_r	scapula_winging_r	shoulder_elv_r	plane_of_elev_r	axial_rot_r	elbow_flexion_r	pro_sup_r	wrist_flex_r	wrist_dev_r	clav_prot_l	clav_elev_l	scapula_abduction_l	scapula_elevation_l	scapula_upward_rot_l	scapula_winging_l	shoulder_elv_l	plane_of_elev_l	axial_rot_l	elbow_flexion_l	pro_sup_l	wrist_flex_l	wrist_dev_l
      4.07000000	     -3.75480706	      5.26657862	     12.71382204	     -0.11362076	      1.02622579	      0.01275211	     13.04470858	    -14.94263316	     28.09501728	    -11.27130628	     10.51800078	     -5.60511738	     -6.56157330	    -60.09992941	    119.87927491	    -61.37509515	   -159.63317594	      6.45641455	      3.66500168	     17.72839728	     -7.37034188	    -25.49620642	    -11.22221606	    -28.47422931	      5.96814822	     63.08415176	    -10.23734379	      8.02337983	     45.86812662	     16.04306450	     27.74520075	     -7.92311848
      4.08000000	     -3.85468036	      5.32793309	     12.26170139	     -0.11318098	      1.02658144	      0.01238862	     13.23943484	    -15.14222238	     28.75822568	    -11.65008082	     11.12302746	     -5.73294596	     -5.70567597	    -59.34910487	    119.91555192	    -59.89738381	   -159.19847718	      6.02848400	      3.76678382	     17.99897680	     -7.66995406	    -25.93822451	    -10.67752324	    -27.92669447	      6.23013335	     63.05370129	     -9.36215121	      8.27635017	     44.12822806	     16.23343244	     27.75704287	     -7.66508222
      4.09000000	     -3.78508260	      5.26414085	     12.35699349	     -0.11302761	      1.02590999	      0.01204504	     13.47086837	    -14.61800895	     29.56722742	    -11.41101773	     11.82648817	     -6.35994112	     -4.84702069	    -58.65352248	    120.78345341	    -58.22972552	   -157.52928420	      5.45767731	      4.08509095	     18.47217863	     -7.52698147	    -26.74859958	    -10.61480365	    -27.58070369	      6.72020739	     62.08370633	     -8.16700191	      9.23516422	     42.22394928	     16.35991287	     27.71855173	     -7.69019347
      4.10000000	     -3.99069749	      5.28590837	     12.42507790	     -0.11271339	      1.02623039	      0.01185342	     13.68915477	    -14.93429110	     30.09305503	    -11.79059335	     12.14000409	     -6.37645320	     -4.39760550	    -58.17608205	    120.72824082	    -56.69599559	   -157.28059783	      5.10262922	      4.14796911	     18.69577266	     -7.89620757	    -27.11278399	    -10.11902861	    -27.25649221	      6.90238189	     62.21717302	     -7.80062838	      8.97016902	     40.64357327	     16.60958368	     27.71319317	     -7.43062257
      4.11000000	     -4.15480821	      5.24893803	     12.35241376	     -0.11229880	      1.02662588	      0.01162019	     13.85244585	    -15.20645316	     30.63881890	    -12.19059381	     12.63083777	     -6.41169248	     -3.89863719	    -57.68474621	    120.73486684	    -55.14798826	   -156.99235705	      4.75384077	      4.19442832	     18.92720456	     -8.20046008	    -27.49047220	     -9.65776585	    -26.88166557	      7.10113251	     62.24106205	     -7.32018920	      8.91423000	     38.93887363	     16.83073154	     27.66047300	     -7.16226644
      4.12000000	     -4.05013336	      5.20100252	     12.12098903	     -0.11192923	      1.02602300	      0.01133573	     14.01190201	    -14.60111851	     31.57809515	    -12.00072715	     13.71576382	     -7.11645741	     -3.32118186	    -56.99337723	    121.24764911	    -53.40330490	   -155.22331695	      4.50237838	      4.11425218	     19.45476887	     -7.96890263	    -28.40339722	     -9.59990836	    -26.38813462	      7.68467865	     61.26288219	     -6.01356974	      9.95554114	     36.96185639	     16.88683032	     27.05334366	     -7.28547142
      4.13000000	     -4.05863298	      5.22876096	     12.10725607	     -0.11188264	      1.02579830	      0.01132982	     14.36270751	    -14.19950180	     32.61046099	    -11.87128249	     14.45686720	     -7.76844100	     -3.11329685	    -56.24985591	    120.95762473	    -51.66003357	   -153.41366103	      4.37268786	      3.99306095	     20.04434724	     -8.17847264	    -29.39699242	     -9.26112493	    -26.13331799	      8.22865364	     60.92564987	     -5.35790879	     10.26889318	     35.25159983	     17.05601552	     26.39368797	     -7.38192108
      4.14000000	     -4.18785231	      5.23960389	     12.07115189	     -0.11142507	      1.02619041	      0.01107125	     14.53321694	    -14.48115656	     33.15389613	    -12.25928302	     14.91500041	     -7.79775585	     -2.68287911	    -55.93669779	    120.82532541	    -50.12979883	   -153.20499773	      4.05921130	      4.02418481	     20.26186363	     -8.47714179	    -29.75302522	     -8.83604418	    -25.81582940	      8.40792618	     60.99553016	     -4.94333001	      9.90633991	     33.72286928	     17.27282364	     26.36773615	     -7.10569589
      4.15000000	     -4.22751979	      5.19433587	     11.89637542	     -0.11094598	      1.02602512	      0.01087876	     14.66133373	    -14.14645369	     34.04816123	    -12.29814076	     15.99687660	     -8.30552530	     -2.62351927	    -55.51272719	    120.84697456	    -48.39247488	   -152.12210417	      4.02811013	      3.61323014	     20.64400206	     -8.40713846	    -30.41577638	     -8.64661444	    -25.33089042	      8.83490879	     60.47426105	     -4.09028022	     10.39916260	     31.89279091	     17.27391317	     25.68043072	     -7.02391547
      4.16000000	     -4.32788346	      5.21020079	     11.85369026	     -0.11052437	      1.02642884	      0.01068310	     14.85894220	    -14.36433169	     34.62999292	    -12.61803728	     16.43751833	     -8.39102127	     -2.19256040	    -55.20000755	    120.67567121	    -46.87490193	   -151.89757695	      3.74709019	      3.53230367	     20.87870020	     -8.70303246	    -30.80386633	     -8.22694339	    -25.01758165	      9.03143738	     60.52078336	     -3.71021807	     10.01578564	     30.40795942	     17.46708345	     25.57404765	     -6.77261279
      4.17000000	     -4.41329694	      5.19114178	     11.75932397	     -0.11006442	      1.02681594	      0.01048455	     15.00357956	    -14.49904244	     35.23069839	    -12.91123149	     17.03130094	     -8.51753657	     -1.81526021	    -54.92345454	    120.63567103	    -45.34872192	   -151.59583728	      3.51609599	      3.32745033	     21.11923366	     -8.91694852	    -31.20897587	     -7.85824777	    -24.65914120	      9.25282381	     60.44666595	     -3.24978143	      9.87689020	     28.85206517	     17.61562565	     25.35053801	     -6.53371695
      4.18000000	     -4.35504489	      5.12411242	     11.63850089	     -0.10976141	      1.02627258	      0.01041489	     15.22879500	    -13.75328488	     36.43281008	    -12.62810316	     18.30001172	     -9.40123294	     -2.04100660	    -54.54145619	    120.68824566	    -43.54019933	   -150.17710511	      3.87752679	      1.85946863	     21.61160658	     -8.72624703	    -32.07338388	     -7.77409604	    -24.18665842	      9.82012180	     59.65441348	     -2.38907945	     10.59748318	     27.12687231	     17.45601467	     23.92490578	     -6.60516385
      4.19000000	     -4.44757464	      5.16557002	     11.42796650	     -0.10942962	      1.02659807	      0.01037608	     15.51338014	    -13.78104553	     37.23753351	    -12.80275983	     18.85196104	     -9.69766178	     -1.75864939	    -54.18774051	    120.33102204	    -42.22269491	   -149.74518551	      3.80732251	      1.47590834	     21.90091859	     -9.00303913	    -32.55724906	     -7.36164490	    -23.85362179	     10.07239419	     59.78376440	     -2.01286924	     10.22541917	     25.75350524	     17.57852158	     23.58042616	     -6.39879084
      4.20000000	     -4.36129191	      5.08494520	     11.49688021	     -0.10917050	      1.02641434	      0.01030794	     15.77851239	    -13.28816651	     38.37903552	    -12.67322041	     19.92698212	    -10.41145939	     -2.06481280	    -54.11198440	    120.08826671	    -40.56913759	   -148.48991540	      4.15125917	      0.17072873	     22.24229322	     -9.04261481	    -33.14097461	     -7.19762826	    -23.61746681	     10.42000842	     59.26394016	     -1.40269866	     10.58622793	     24.25483547	     17.50456568	     22.48286544	     -6.31850294
